<?xml version="1.0" encoding="utf-8"?>
<!-- Generator: Adobe Illustrator 26.3.1, SVG Export Plug-In . SVG Version: 6.00 Build 0)  -->
<svg version="1.1" id="圖層_1" xmlns="http://www.w3.org/2000/svg" xmlns:xlink="http://www.w3.org/1999/xlink" x="0px" y="0px"
	 viewBox="0 0 32 32" style="enable-background:new 0 0 32 32;" xml:space="preserve">
<style type="text/css">
	.st0{fill-rule:evenodd;clip-rule:evenodd;fill:#FFFFFF;}
</style>
<path class="st0" d="M13.7,26.3l-9.3-9.3c0,0,0,0,0,0c0,0,0,0,0,0C4.1,16.7,4,16.4,4,16c0-0.2,0-0.4,0.1-0.5
	c0.1-0.2,0.2-0.3,0.3-0.4c0,0,0,0,0,0c0,0,0,0,0,0l9.3-9.3c0.5-0.5,1.4-0.5,1.9,0s0.5,1.4,0,1.9l-7.1,7.1h18.1
	c0.7,0,1.3,0.6,1.3,1.3c0,0.7-0.6,1.3-1.3,1.3H8.6l7.1,7.1c0.5,0.5,0.5,1.4,0,1.9C15.1,26.8,14.2,26.8,13.7,26.3z"/>
</svg>
