<svg width="203" height="218" viewBox="0 0 203 218" fill="none" xmlns="http://www.w3.org/2000/svg">
<g clip-path="url(#clip0_5_18935)">
<path d="M87.3731 215.997C87.3735 216.194 87.3349 216.39 87.2596 216.572C87.1842 216.754 87.0736 216.92 86.9341 217.06C86.7945 217.199 86.6288 217.31 86.4463 217.386C86.2638 217.461 86.0682 217.5 85.8707 217.5L68.7925 217.5C68.3932 217.5 68.0103 217.342 67.728 217.06C67.4457 216.778 67.2871 216.396 67.2871 215.997C67.2871 215.8 67.3261 215.604 67.4018 215.422C67.4774 215.24 67.5884 215.075 67.7282 214.935C67.868 214.796 68.034 214.685 68.2166 214.61C68.3992 214.535 68.5949 214.497 68.7925 214.497L85.8707 214.497C86.068 214.497 86.2633 214.536 86.4456 214.611C86.6279 214.686 86.7935 214.797 86.9331 214.936C87.0726 215.076 87.1832 215.241 87.2588 215.423C87.3343 215.605 87.3731 215.8 87.3731 215.997Z" fill="white"/>
<path d="M65.921 215.997C65.921 216.396 65.7624 216.778 65.4801 217.06C65.1977 217.342 64.8149 217.5 64.4156 217.5L47.3403 217.5C46.9411 217.5 46.5582 217.342 46.2759 217.06C45.9936 216.778 45.835 216.396 45.835 215.997C45.835 215.8 45.8739 215.604 45.9496 215.422C46.0253 215.24 46.1362 215.075 46.276 214.935C46.4159 214.796 46.5818 214.685 46.7645 214.61C46.9471 214.535 47.1428 214.497 47.3403 214.497L64.4156 214.497C64.6132 214.497 64.8088 214.535 64.9915 214.61C65.1741 214.685 65.3401 214.796 65.4799 214.935C65.6197 215.075 65.7306 215.24 65.8063 215.422C65.882 215.604 65.921 215.8 65.921 215.997Z" fill="white"/>
<path d="M78.6978 110.118C78.6978 110.315 78.6589 110.51 78.5832 110.693C78.5075 110.875 78.3966 111.04 78.2567 111.18C78.1169 111.319 77.9509 111.429 77.7683 111.505C77.5857 111.58 77.39 111.618 77.1925 111.618L60.1143 111.618C59.7158 111.618 59.3336 111.46 59.0519 111.179C58.7701 110.897 58.6118 110.516 58.6118 110.118C58.6114 109.921 58.65 109.725 58.7254 109.543C58.8007 109.361 58.9113 109.195 59.0509 109.055C59.1904 108.916 59.3562 108.805 59.5386 108.729C59.7211 108.654 59.9167 108.615 60.1143 108.615L77.1925 108.615C77.5917 108.615 77.9746 108.773 78.2569 109.055C78.5392 109.337 78.6978 109.719 78.6978 110.118Z" fill="white"/>
<path d="M0.714843 203.796L0.71484 122.261C0.714839 118.964 2.02633 115.802 4.36088 113.471C6.69544 111.139 9.86187 109.829 13.1638 109.828L97.2386 109.828C97.2386 109.828 97.4594 112.469 96.649 114.051L15.0027 114.051C13.7307 114.049 12.4709 114.299 11.2954 114.784C10.1199 115.269 9.05174 115.981 8.152 116.879C7.25227 117.777 6.5386 118.843 6.05181 120.016C5.56502 121.19 5.31466 122.447 5.31504 123.717L5.31505 153.997C5.31473 154.243 5.37552 154.485 5.49196 154.701C5.6084 154.918 5.77685 155.102 5.98216 155.237C8.36058 156.83 10.4141 158.223 10.4141 161.208L10.4141 164.863C10.4141 167.849 8.36058 169.242 5.98216 170.835C5.77848 170.969 5.61106 171.151 5.4947 171.365C5.37835 171.579 5.31664 171.819 5.31505 172.062L5.31505 202.34C5.31581 203.609 5.56701 204.866 6.05431 206.038C6.54161 207.21 7.25546 208.275 8.15508 209.172C9.05471 210.069 10.1225 210.78 11.2974 211.265C12.4724 211.75 13.7314 211.999 15.0027 211.998L107.424 211.998L107.424 216.226L13.158 216.226C9.85758 216.223 6.69308 214.913 4.35986 212.582C2.02665 210.252 0.715611 207.092 0.714843 203.796Z" fill="white"/>
<path d="M5.93003 161.301C6.27234 161.22 6.63091 161.243 6.96037 161.366C7.28983 161.489 7.5754 161.706 7.78094 161.991C7.98648 162.276 8.10277 162.616 8.11509 162.967C8.12741 163.318 8.03522 163.664 7.85017 163.963C7.66512 164.262 7.39553 164.499 7.07549 164.644C6.75546 164.79 6.39936 164.837 6.05224 164.781C5.70511 164.724 5.38256 164.567 5.12538 164.327C4.8682 164.087 4.68794 163.777 4.6074 163.435C4.55356 163.208 4.54508 162.973 4.58244 162.743C4.61981 162.513 4.70228 162.292 4.82515 162.094C4.94801 161.896 5.10885 161.724 5.29844 161.588C5.48804 161.452 5.70267 161.354 5.93003 161.301Z" fill="white"/>
<path d="M94.9492 87.0226C94.7517 87.023 94.556 86.9844 94.3733 86.9092C94.1907 86.834 94.0248 86.7236 93.8849 86.5842C93.7451 86.4449 93.6342 86.2794 93.5585 86.0972C93.4828 85.915 93.4438 85.7197 93.4438 85.5225L93.4438 68.4711C93.4438 68.0724 93.6024 67.6901 93.8848 67.4083C94.1671 67.1264 94.55 66.9681 94.9492 66.9681C95.348 66.9688 95.7301 67.1275 96.0118 67.4093C96.2935 67.6911 96.4517 68.0729 96.4517 68.4711L96.4517 85.5225C96.4517 85.7195 96.4128 85.9145 96.3373 86.0965C96.2618 86.2785 96.1511 86.4439 96.0116 86.5832C95.8721 86.7225 95.7065 86.833 95.5242 86.9084C95.3419 86.9838 95.1465 87.0226 94.9492 87.0226Z" fill="white"/>
<path d="M94.9492 65.6041C94.7517 65.6044 94.556 65.5659 94.3733 65.4907C94.1907 65.4155 94.0248 65.3051 93.8849 65.1657C93.7451 65.0264 93.6342 64.8609 93.5585 64.6787C93.4828 64.4965 93.4438 64.3012 93.4438 64.104L93.4438 47.0525C93.4438 46.8552 93.4828 46.6597 93.5584 46.4774C93.6341 46.295 93.745 46.1293 93.8848 45.9898C94.0245 45.8502 94.1905 45.7395 94.3731 45.664C94.5558 45.5884 94.7515 45.5495 94.9492 45.5495C95.1468 45.5495 95.3424 45.5884 95.5249 45.664C95.7073 45.7396 95.8731 45.8503 96.0126 45.9899C96.1522 46.1296 96.2628 46.2953 96.3381 46.4776C96.4135 46.6599 96.4521 46.8553 96.4517 47.0525L96.4517 64.104C96.4517 64.5018 96.2934 64.8834 96.0116 65.1647C95.7298 65.446 95.3477 65.6041 94.9492 65.6041Z" fill="white"/>
<path d="M200.995 78.3607C200.797 78.3607 200.601 78.3218 200.419 78.2462C200.237 78.1707 200.071 78.0599 199.931 77.9203C199.792 77.7807 199.681 77.615 199.606 77.4326C199.53 77.2503 199.492 77.0549 199.492 76.8577L199.492 59.8092C199.492 59.6119 199.53 59.4166 199.606 59.2342C199.681 59.0519 199.792 58.8862 199.931 58.7466C200.071 58.607 200.237 58.4962 200.419 58.4206C200.601 58.3451 200.797 58.3062 200.995 58.3062C201.192 58.3062 201.388 58.3451 201.571 58.4206C201.753 58.4961 201.919 58.6068 202.059 58.7464C202.199 58.886 202.31 59.0517 202.385 59.234C202.461 59.4164 202.5 59.6118 202.5 59.8092L202.5 76.8577C202.5 77.0551 202.461 77.2505 202.385 77.4329C202.31 77.6152 202.199 77.7809 202.059 77.9205C201.919 78.0601 201.753 78.1708 201.571 78.2463C201.388 78.3218 201.192 78.3607 200.995 78.3607Z" fill="white"/>
<path d="M94.9668 87.0226C94.7695 87.0226 94.5741 86.9838 94.3918 86.9084C94.2096 86.833 94.0439 86.7225 93.9044 86.5832C93.7649 86.4439 93.6542 86.2785 93.5787 86.0965C93.5032 85.9145 93.4644 85.7195 93.4644 85.5225L93.4644 68.4711C93.4644 68.0729 93.6226 67.6911 93.9042 67.4093C94.1859 67.1275 94.5681 66.9688 94.9668 66.9681C95.3661 66.9681 95.749 67.1264 96.0313 67.4083C96.3136 67.6901 96.4722 68.0724 96.4722 68.4711L96.4722 85.5225C96.4722 85.7197 96.4332 85.915 96.3575 86.0972C96.2818 86.2794 96.1709 86.4449 96.0311 86.5842C95.8913 86.7236 95.7253 86.834 95.5427 86.9092C95.3601 86.9844 95.1644 87.023 94.9668 87.0226Z" fill="white"/>
<path d="M94.9668 65.6041C94.5683 65.6041 94.1862 65.446 93.9044 65.1647C93.6227 64.8834 93.4644 64.5018 93.4644 64.104L93.4644 47.0525C93.464 46.8553 93.5026 46.6599 93.5779 46.4776C93.6532 46.2953 93.7638 46.1296 93.9034 45.9899C94.0429 45.8503 94.2087 45.7396 94.3912 45.664C94.5737 45.5884 94.7693 45.5495 94.9668 45.5495C95.1645 45.5495 95.3603 45.5884 95.5429 45.664C95.7255 45.7395 95.8915 45.8502 96.0313 45.9898C96.1711 46.1293 96.2819 46.295 96.3576 46.4774C96.4332 46.6597 96.4722 46.8552 96.4722 47.0525L96.4722 64.104C96.4722 64.3012 96.4332 64.4965 96.3575 64.6787C96.2818 64.8609 96.1709 65.0264 96.0311 65.1657C95.8913 65.3051 95.7253 65.4155 95.5427 65.4907C95.3601 65.5659 95.1644 65.6044 94.9668 65.6041Z" fill="white"/>
<path fill-rule="evenodd" clip-rule="evenodd" d="M94.7202 203.903L94.7202 12.9294C94.7202 6.06483 100.294 0.499981 107.169 0.49998L188.836 0.499977C195.711 0.499977 201.285 6.06483 201.285 12.9294L201.285 203.903C201.285 210.768 195.711 216.333 188.836 216.333L107.169 216.333C100.294 216.333 94.7202 210.768 94.7202 203.903ZM197.056 201.549L197.056 14.7597C197.055 12.1964 196.035 9.73836 194.219 7.92612C192.403 6.1139 189.941 5.09583 187.374 5.09583L157.046 5.09583C156.802 5.09742 156.562 5.15904 156.348 5.2752C156.133 5.39138 155.951 5.55854 155.816 5.7619C154.221 8.13659 152.826 10.1869 149.836 10.1869L146.164 10.1869C143.173 10.1869 141.775 8.13659 140.183 5.7619C140.048 5.55854 139.866 5.39138 139.651 5.2752C139.437 5.15904 139.197 5.09742 138.953 5.09583L108.628 5.09584C106.061 5.09584 103.599 6.11399 101.784 7.92631C99.9689 9.73863 98.9491 12.1967 98.9491 14.7597L98.9491 201.549C98.9491 204.112 99.9689 206.57 101.784 208.382C103.599 210.195 106.061 211.213 108.628 211.213L187.374 211.213C189.941 211.213 192.403 210.195 194.219 208.383C196.035 206.57 197.055 204.112 197.056 201.549Z" fill="white"/>
<path d="M149.731 5.70692C149.812 6.04869 149.789 6.40671 149.666 6.73565C149.543 7.0646 149.325 7.34971 149.04 7.55493C148.754 7.76015 148.414 7.87625 148.063 7.88856C147.711 7.90086 147.364 7.80882 147.065 7.62406C146.766 7.4393 146.529 7.17013 146.383 6.8506C146.237 6.53106 146.189 6.17551 146.246 5.82893C146.302 5.48236 146.461 5.16031 146.7 4.90353C146.94 4.64675 147.251 4.46677 147.594 4.38636C148.052 4.27859 148.535 4.35717 148.936 4.6048C149.337 4.85243 149.623 5.24885 149.731 5.70692Z" fill="white"/>
<path d="M4.00592 87.4474C3.97688 88.8278 5.07238 89.9704 6.45278 89.9994C7.83319 90.0285 8.97577 88.933 9.00482 87.5526L4.00592 87.4474ZM24.5001 42L22.8103 40.1575L24.5001 42ZM76.5556 24.923C77.3415 23.7878 77.0583 22.2304 75.9231 21.4445L57.4238 8.63728C56.2886 7.85136 54.7312 8.13453 53.9453 9.26974C53.1594 10.4049 53.4425 11.9623 54.5778 12.7482L71.0216 24.1325L59.6374 40.5763C58.8515 41.7115 59.1346 43.2689 60.2698 44.0548C61.405 44.8407 62.9624 44.5575 63.7483 43.4223L76.5556 24.923ZM9.00482 87.5526C9.17711 79.3637 11.2372 57.5557 26.1898 43.8425L22.8103 40.1575C6.23198 55.3617 4.18232 79.0633 4.00592 87.4474L9.00482 87.5526ZM26.1898 43.8425C46.9087 24.841 68.756 27.0854 74.9473 25.9597L74.0529 21.0403C69.2442 21.9146 44.9333 19.8684 22.8103 40.1575L26.1898 43.8425Z" fill="white"/>
</g>
<defs>
<clipPath id="clip0_5_18935">
<rect width="217" height="202" fill="white" transform="translate(0.5 217.5) rotate(-90)"/>
</clipPath>
</defs>
</svg>
