<svg width="122" height="321" viewBox="0 0 122 321" fill="none" xmlns="http://www.w3.org/2000/svg">
<path d="M105.598 203.577C107.64 203.577 109.309 205.254 109.309 207.295V310.286H101.879V207.295C101.879 205.254 103.548 203.577 105.59 203.577H105.598Z" fill="#9DABC4"/>
<path d="M117.755 203.577C119.797 203.577 121.466 205.254 121.466 207.295V310.286H114.036V207.295C114.036 205.254 115.705 203.577 117.747 203.577H117.755Z" fill="#9DABC4"/>
<path d="M3.71083 203.577C5.75264 203.577 7.42167 205.254 7.42167 207.295V310.286H0V207.295C0 205.254 1.66903 203.577 3.71083 203.577Z" fill="#9DABC4"/>
<path d="M15.8681 203.577C17.9099 203.577 19.5789 205.254 19.5789 207.295V310.286H12.1572V207.295C12.1572 205.254 13.8263 203.577 15.8681 203.577Z" fill="#9DABC4"/>
<path d="M98.1675 205.161H105.598V178.837H98.1675V205.161Z" fill="#9DABC4"/>
<path d="M15.8765 205.161H23.3066L23.3066 178.837H15.8765L15.8765 205.161Z" fill="#9DABC4"/>
<path d="M10.5057 182.394H110.952C113.839 182.394 116.18 180.054 116.18 177.168L116.18 118.939C116.18 116.053 113.839 113.714 110.952 113.714L10.5057 113.714C7.61867 113.714 5.27831 116.053 5.27831 118.939L5.27831 177.168C5.27831 180.054 7.61867 182.394 10.5057 182.394Z" fill="#3B4466"/>
<path d="M11.6074 216.256H109.868C114.224 216.256 117.756 212.726 117.756 208.371V208.354C117.756 203.999 114.224 200.468 109.868 200.468H11.6074C7.25117 200.468 3.71976 203.999 3.71976 208.354V208.371C3.71976 212.726 7.25117 216.256 11.6074 216.256Z" fill="#3B4466"/>
<path d="M46.6813 178.854C49.7991 175.813 57.9324 172.713 60.4656 173.416C61.2027 173.611 64.2273 173.001 66.2521 172.459C67.0146 172.256 67.6501 172.044 67.9466 171.909C69.0564 171.392 70.573 170.181 71.0474 169.884C75.5123 167.03 79.2994 162.211 82.3239 158.899C86.8566 153.911 90.6267 151.166 94.5155 145.958C94.4562 136.649 93.0667 120.244 92.4567 110.504C92.4059 109.64 92.3551 108.835 92.3212 108.081C91.8044 98.4259 107.232 97.5027 108.08 104.295C108.291 105.955 108.503 108.098 108.715 110.546C109.3 117.373 109.859 126.503 110.13 133.821V133.965C110.147 134.32 110.155 134.676 110.172 135.023V135.218C110.223 136.539 110.265 137.776 110.282 138.928C110.401 141.282 110.562 143.417 110.579 145.161C110.57 145.195 110.57 145.246 110.57 145.28C110.57 146.559 110.57 147.635 110.57 148.414C110.57 148.727 110.57 148.998 110.562 149.218C110.562 149.362 110.562 149.489 110.562 149.583C110.562 149.701 110.545 149.879 110.536 150.031H110.511C110.384 151.319 110.07 152.454 109.689 153.436C109.537 153.826 109.376 154.199 109.198 154.546C109.045 154.851 108.876 155.147 108.715 155.41C108.706 155.435 108.681 155.461 108.681 155.486C108.537 155.706 108.41 155.918 108.266 156.113C108.139 156.307 107.995 156.511 107.851 156.697H107.842C107.495 157.18 107.139 157.646 106.732 158.128C106.538 158.366 106.334 158.586 106.131 158.823C106.063 158.908 105.978 158.984 105.902 159.069C105.75 159.23 105.597 159.39 105.436 159.551C101.802 163.38 97.1334 166.59 93.3039 168.614C88.0427 171.417 84.7555 173.187 80.8413 176.084H80.8328C80.0958 176.635 80.0449 176.702 79.1807 177.084C71.6489 179.218 52.2899 188.001 46.0374 182.242C44.9953 181.293 45.4528 180.082 46.7152 178.862L46.6813 178.854Z" fill="#FFAA8E"/>
<path d="M76.0713 178.854C72.9535 175.813 64.8202 172.713 62.287 173.416C61.5499 173.611 58.5254 173.001 56.5005 172.459C55.738 172.256 55.1026 172.044 54.8061 171.909C53.6962 171.392 52.1797 170.181 51.7052 169.884C47.2404 167.03 43.4533 162.211 40.4287 158.899C35.8961 153.911 32.1259 151.166 28.2372 145.958C28.2965 136.649 29.6859 120.244 30.2959 110.504C30.3467 109.64 30.3976 108.835 30.4315 108.081C30.9483 98.4259 15.5204 97.5027 14.6731 104.295C14.4613 105.955 14.2495 108.098 14.0377 110.546C13.4531 117.373 12.894 126.503 12.6229 133.821V133.965C12.6059 134.32 12.5974 134.676 12.5805 135.023V135.218C12.5297 136.539 12.4873 137.776 12.4704 138.928C12.3517 141.282 12.1908 143.417 12.1738 145.161C12.1823 145.195 12.1823 145.246 12.1823 145.28C12.1823 146.559 12.1823 147.635 12.1823 148.414C12.1823 148.727 12.1823 148.998 12.1908 149.218C12.1908 149.362 12.1908 149.489 12.1908 149.583C12.1908 149.701 12.2077 149.879 12.2162 150.031H12.2416C12.3687 151.319 12.6822 152.454 13.0634 153.436C13.2159 153.826 13.3769 154.199 13.5548 154.546C13.7073 154.851 13.8767 155.147 14.0377 155.41C14.0462 155.435 14.0716 155.461 14.0716 155.486C14.2156 155.706 14.3427 155.918 14.4867 156.113C14.6138 156.307 14.7579 156.511 14.9019 156.697H14.9104C15.2577 157.18 15.6136 157.646 16.0202 158.128C16.2151 158.366 16.4184 158.586 16.6217 158.823C16.6895 158.908 16.7742 158.984 16.8505 159.069C17.003 159.23 17.1555 159.39 17.3165 159.551C20.9511 163.38 25.6192 166.59 29.4487 168.614C34.7099 171.417 37.9972 173.187 41.9113 176.084H41.9198C42.6569 176.635 42.7077 176.702 43.5719 177.084C51.1037 179.218 70.4627 188.001 76.7152 182.242C77.7573 181.293 77.2998 180.082 76.0374 178.862L76.0713 178.854Z" fill="#FFAA8E"/>
<path d="M91.483 179.819H30.8642L25.5098 200.519H95.2192L91.483 179.819Z" fill="#8E1E36"/>
<path d="M63.5408 293.626C63.3375 278.474 59.2369 205.296 62.126 196.072C64.8116 187.518 68.6496 184.926 80.3497 184.698C87.0766 184.562 92.0498 192.1 92.7276 195.064C93.3969 198.029 93.1343 200.248 91.4483 200.248C89.7623 200.248 84.2554 200.316 84.2554 200.316C87.28 212.029 86.7462 222.328 85.5347 234.855C84.3232 247.373 76.8591 288.112 77.9351 293.626C79.0111 299.139 80.0871 312.208 79.2822 313.419C78.4773 314.63 66.5061 313.284 65.7012 313.419C64.8964 313.555 63.5493 293.626 63.5493 293.626H63.5408Z" fill="#FFAA8E"/>
<path d="M63.1426 307.66C63.2104 296.548 63.6086 294.49 63.6086 294.49C63.8204 297.361 64.6083 308.948 65.0912 309.744C65.5741 310.531 67.1838 307.66 71.8944 307.66H72.623C77.3336 307.66 78.7145 310.582 79.189 309.786C79.6719 308.998 77.8927 297.361 78.1045 294.481C78.1045 294.481 80.8495 300.817 81.1799 307.652C81.6205 316.934 78.0113 319.899 73.5549 320.619C72.8348 320.703 71.5301 320.712 70.9624 320.619C66.6162 319.882 63.1002 316.926 63.1511 307.652L63.1426 307.66Z" fill="#584D5E"/>
<path d="M57.9238 293.626C58.1271 278.474 62.2277 205.296 59.3386 196.072C56.6529 187.518 52.815 184.926 41.1149 184.698C34.3879 184.562 29.4147 192.1 28.737 195.064C28.0677 198.029 28.3303 200.248 30.0163 200.248C31.7023 200.248 37.2092 200.316 37.2092 200.316C34.1846 212.029 34.7184 222.328 35.9299 234.855C37.1414 247.373 44.6054 288.112 43.5295 293.626C42.4535 299.148 41.3775 312.208 42.1824 313.419C42.9873 314.63 54.9585 313.284 55.7634 313.419C56.5682 313.555 57.9153 293.626 57.9153 293.626H57.9238Z" fill="#FFAA8E"/>
<path d="M58.3307 307.66C58.2629 296.548 57.8647 294.49 57.8647 294.49C57.6529 297.361 56.865 308.948 56.3821 309.744C55.8991 310.531 54.2894 307.66 49.5789 307.66H48.8503C44.1397 307.66 42.7587 310.582 42.2843 309.786C41.8014 308.998 43.5805 297.361 43.3687 294.481C43.3687 294.481 40.6237 300.817 40.2933 307.652C39.8528 316.934 43.4619 319.899 47.9183 320.619C48.6385 320.703 49.9432 320.712 50.5108 320.619C54.8571 319.882 58.3815 316.926 58.3222 307.652L58.3307 307.66Z" fill="#584D5E"/>
<path d="M33.9138 161.339C35.7438 155.901 38.294 153.157 41.5643 153.157H77.5543C80.4941 153.157 84.493 152.217 87.543 161.339C99.4465 181.742 99.0398 189.813 99.0398 200.519H93.5922C92.2875 183.775 69.7429 186.57 60.9063 186.587H60.703C51.8665 186.561 29.1525 183.775 27.8477 200.519H22.4001C22.4001 189.813 21.9934 181.733 33.8969 161.339H33.9138Z" fill="#A7364B"/>
<path d="M86.018 72.0599C81.9005 83.6294 72.9454 102.534 61.1097 102.534C46.6815 102.534 40.3781 84.1884 36.9893 71.6279C40.4375 70.6539 43.6315 69.6884 45.7919 68.4518C49.8586 66.1311 53.1543 57.7292 55.0182 51.1653C56.0941 47.3793 56.6872 44.2202 56.6872 43.1699L64.38 50.2082L71.1154 56.4334C71.1154 58.0172 70.5562 60.3972 71.1238 62.828C71.5898 64.8014 72.8013 66.8172 75.6819 68.4518C78.1558 69.8578 81.9937 70.925 86.018 72.0514V72.0599Z" fill="#FFAA8E"/>
<path d="M103.293 79.9028C99.7771 74.7109 84.0357 69.79 76.3175 68.2231C75.5804 74.2112 67.3708 81.5544 61.1607 81.6052C54.9505 81.5544 46.8087 74.2112 46.0632 68.2231C38.345 69.7816 22.6036 74.7109 19.0876 79.9028C15.5716 85.0947 10.1833 117.296 11.039 122.615C11.5389 125.707 28.7205 126.189 30.4827 125.588C31.2961 125.317 30.9402 120.439 31.7366 120.701C31.7366 120.701 32.3975 125.588 31.94 133.194C31.7027 137.141 30.0507 162.533 33.0244 162.414C37.2775 162.245 54.9844 161.423 60.2541 161.245C65.8628 161.423 85.0778 162.245 89.3308 162.414C92.3046 162.533 90.6525 137.141 90.4153 133.194C89.9577 125.588 90.6186 120.701 90.6186 120.701C91.415 120.447 91.0676 125.317 91.8725 125.588C93.6347 126.189 110.816 125.707 111.316 122.615C112.172 117.296 106.792 85.1031 103.268 79.9028H103.293Z" fill="#FFD6BB"/>
<path d="M76.072 178.854C72.9542 175.813 64.8209 172.713 62.2877 173.416C61.5506 173.611 58.526 173.001 56.5012 172.459C55.7387 172.256 55.1032 172.044 54.8067 171.908C53.6968 171.392 52.1803 170.181 51.7059 169.884C47.241 167.03 43.4539 162.211 40.4293 158.899C35.8967 153.91 32.1266 151.166 28.2378 145.957C28.2632 141.841 28.5513 136.336 28.9156 130.636C26.8738 130.263 24.8235 129.916 22.7563 129.628C19.4521 129.162 16.0463 128.671 12.9031 127.494C12.793 129.679 12.6913 131.822 12.615 133.82V133.964C12.5981 134.32 12.5896 134.676 12.5727 135.023V135.218C12.5218 136.539 12.4795 137.776 12.4625 138.928C12.3439 141.282 12.183 143.417 12.166 145.161C12.1745 145.195 12.1745 145.246 12.1745 145.28C12.1745 146.559 12.1745 147.634 12.1745 148.414C12.1745 148.727 12.1745 148.998 12.183 149.218C12.183 149.362 12.183 149.489 12.183 149.582C12.183 149.701 12.1999 149.879 12.2084 150.031H12.2338C12.3609 151.319 12.6743 152.454 13.0556 153.436C13.2081 153.826 13.3691 154.198 13.547 154.546C13.6995 154.851 13.8689 155.147 14.0299 155.41C14.0384 155.435 14.0638 155.46 14.0638 155.486C14.2078 155.706 14.3349 155.918 14.4789 156.113C14.606 156.307 14.75 156.511 14.8941 156.697H14.9025C15.2499 157.18 15.6057 157.646 16.0124 158.128C16.2073 158.366 16.4106 158.586 16.6139 158.823C16.6817 158.908 16.7664 158.984 16.8427 159.068C16.9952 159.229 17.1477 159.39 17.3087 159.551C20.9432 163.38 25.6114 166.59 29.4409 168.614C34.7021 171.417 37.9893 173.187 41.9035 176.084H41.912C42.6491 176.635 42.6999 176.702 43.5641 177.083C51.0959 179.218 70.4549 188.001 76.7074 182.241C77.7495 181.293 77.292 180.082 76.0296 178.862L76.072 178.854Z" fill="#FFAA8E"/>
<path d="M46.6813 178.854C49.7991 175.813 57.9324 172.713 60.4656 173.416C61.2027 173.611 64.2273 173.001 66.2521 172.459C67.0146 172.256 67.6501 172.044 67.9466 171.908C69.0564 171.392 70.573 170.181 71.0474 169.884C75.5123 167.03 79.2994 162.211 82.3239 158.899C86.8566 153.91 90.6267 151.166 94.5155 145.957C94.4901 141.841 94.202 136.336 93.8377 130.636C95.8795 130.263 97.9298 129.916 99.997 129.628C103.301 129.162 106.707 128.671 109.85 127.494C109.96 129.679 110.062 131.822 110.138 133.82V133.964C110.155 134.32 110.164 134.676 110.181 135.023V135.218C110.231 136.539 110.274 137.776 110.291 138.928C110.409 141.282 110.57 143.417 110.587 145.161C110.579 145.195 110.579 145.246 110.579 145.28C110.579 146.559 110.579 147.634 110.579 148.414C110.579 148.727 110.579 148.998 110.57 149.218C110.57 149.362 110.57 149.489 110.57 149.582C110.57 149.701 110.553 149.879 110.536 150.031H110.511C110.384 151.319 110.07 152.454 109.689 153.436C109.537 153.826 109.376 154.198 109.198 154.546C109.045 154.851 108.876 155.147 108.715 155.41C108.706 155.435 108.681 155.46 108.681 155.486C108.537 155.706 108.41 155.918 108.266 156.113C108.139 156.307 107.995 156.511 107.851 156.697H107.842C107.495 157.18 107.139 157.646 106.732 158.128C106.538 158.366 106.334 158.586 106.131 158.823C106.063 158.908 105.978 158.984 105.902 159.068C105.75 159.229 105.597 159.39 105.436 159.551C101.802 163.38 97.1334 166.59 93.3039 168.614C88.0427 171.417 84.7555 173.187 80.8413 176.084H80.8328C80.0958 176.635 80.0449 176.702 79.1807 177.083C71.6489 179.218 52.2899 188.001 46.0374 182.241C44.9953 181.293 45.4528 180.082 46.7152 178.862L46.6813 178.854Z" fill="#FFAA8E"/>
<path d="M87.9297 14.3094C74.7234 -3.45256 46.8969 1.98038 38.6543 15.4247C28.6886 31.6872 38.7213 65.8845 38.7213 65.8845C38.7213 65.8845 63.0139 40.5853 82.4144 69.3517C82.4144 69.3517 102.689 34.1771 87.914 14.3111L87.9297 14.3094Z" fill="#18214A"/>
<path d="M81.3566 37.2346C81.3566 37.2346 86.7118 32.6136 86.9023 38.5009C87.1154 45.3094 80.7852 47.5856 79.7422 45.3439C78.6991 43.1022 81.3566 37.2346 81.3566 37.2346Z" fill="#FFAA8E"/>
<path d="M46.3649 34.9726C46.3649 34.9726 41.7329 29.6081 40.688 35.393C39.4753 42.1042 45.4078 45.2866 46.7695 43.225C48.1312 41.1635 46.3649 34.9726 46.3649 34.9726Z" fill="#FFAA8E"/>
<path d="M62.59 60.4589C73.6679 61.289 80.4528 54.5033 82.0688 32.7615C82.8934 21.5384 77.7138 14.2437 65.2905 13.3234C52.8829 12.4015 47.1451 18.8803 46.3205 30.1034C44.5977 53.4654 51.1457 59.6216 62.5917 60.4746L62.59 60.4589Z" fill="#FFAA8E"/>
<path d="M55.0528 27.1168C55.2587 27.2533 55.5432 27.2378 55.7317 27.0736C57.3778 25.5697 60.0793 25.8445 60.1108 25.841C60.4162 25.871 60.6937 25.6492 60.7234 25.3433C60.7532 25.0374 60.5316 24.7593 60.2262 24.7293C60.0971 24.7117 57.0116 24.4157 54.9867 26.2322C54.7546 26.433 54.7458 26.7844 54.9464 27.0171C54.9813 27.0451 55.0179 27.0888 55.0511 27.1011L55.0528 27.1168Z" fill="#18214A"/>
<path d="M46.0731 38.7791C46.0731 38.7791 40.1059 26.0928 47.0928 14.3796C54.0798 2.66636 77.0831 8.24615 82.0566 16.1212C87.0302 23.9963 80.9773 41.7058 80.9773 41.7058C80.9773 41.7058 84.6319 18.7032 71.8945 16.3843C71.8945 16.3843 70.9892 22.1381 61.8782 27.1583C52.9174 32.0983 47.2299 32.1376 47.2299 32.1376L46.0888 38.7774L46.0731 38.7791Z" fill="#18214A"/>
<path d="M82.3239 36.9255C82.3239 36.9255 87.7643 32.0386 88.0822 38.1276C88.4421 45.1696 81.9459 47.6489 80.8217 45.3494C79.6975 43.0498 82.3239 36.9255 82.3239 36.9255Z" fill="#FFAA8E"/>
<path d="M46.0998 35.2795C46.0998 35.2795 41.2024 29.8186 40.2412 35.8255C39.1256 42.7942 45.3225 45.9715 46.6875 43.8115C48.0525 41.6516 46.0998 35.2795 46.0998 35.2795Z" fill="#FFAA8E"/>
<path d="M63.3995 61.3329C74.867 61.9755 81.7408 54.8205 82.9647 32.2885C83.5866 20.6577 78.0831 13.2097 65.223 12.5001C52.3791 11.7884 46.5814 18.6054 45.9595 30.2362C44.6584 54.447 51.553 60.69 63.4016 61.3492L63.3995 61.3329Z" fill="#FFAA8E"/>
<path d="M54.9237 26.9783C55.1393 27.1156 55.4331 27.094 55.6246 26.9203C57.2956 25.3312 60.0941 25.5629 60.1266 25.5587C60.4429 25.5837 60.7253 25.3487 60.7498 25.0314C60.7742 24.7141 60.5394 24.4305 60.2231 24.4055C60.0892 24.3898 56.8932 24.1436 54.8371 26.0638C54.6013 26.2763 54.5994 26.6402 54.8116 26.8771C54.8482 26.9054 54.887 26.95 54.9215 26.962L54.9237 26.9783Z" fill="#18214A"/>
<path d="M45.8825 39.2217C45.8825 39.2217 39.4537 26.2084 46.4356 13.9491C53.4176 1.68977 77.3111 7.01516 82.614 15.0684C87.917 23.1216 82.0236 41.5687 82.0236 41.5687C82.0236 41.5687 85.3291 17.6904 72.1147 15.5393C72.1147 15.5393 71.297 21.5119 61.982 26.8857C52.8205 32.1735 46.942 32.3254 46.942 32.3254L45.8987 39.2196L45.8825 39.2217Z" fill="#18214A"/>
<path d="M49.2544 42.889C48.9871 44.0416 49.9477 45.2517 51.3951 45.5811C52.8425 45.9105 54.2434 45.2448 54.5107 44.0922C54.7779 42.9396 53.8173 41.7294 52.3699 41.4C50.9225 41.0706 49.5217 41.7363 49.2544 42.889Z" fill="#EF6E4B"/>
<path d="M73.1717 44.8318C73.176 46.0159 74.4047 46.9744 75.8892 46.9486C77.3759 46.9392 78.5695 45.9666 78.5631 44.7661C78.5588 43.582 77.3301 42.6235 75.8455 42.6493C74.3588 42.6587 73.1652 43.6312 73.1717 44.8318Z" fill="#EF6E4B"/>
<path d="M72.0435 30.4183C72.0435 30.4183 72.2393 30.5096 72.3401 30.5133C72.373 30.509 75.2114 30.6078 76.7304 32.3797C76.9455 32.6188 77.3015 32.656 77.5574 32.4392C77.7968 32.2246 77.834 31.8694 77.6167 31.6139C75.7625 29.4516 72.5045 29.3405 72.3708 29.3412C72.052 29.3325 71.784 29.5842 71.7754 29.9024C71.7704 30.12 71.8784 30.3062 72.0413 30.4019L72.0435 30.4183Z" fill="#18214A"/>
<path d="M55.8893 37.5924C55.8108 39.0373 56.4031 40.2449 57.1949 40.2923C58.0031 40.3376 58.7083 39.2117 58.7869 37.7668C58.8654 36.322 58.273 35.1143 57.4813 35.0669C56.6731 35.0217 55.9679 36.1475 55.8893 37.5924Z" fill="#18214A"/>
<path d="M71.8014 38.6899C71.7228 40.1348 72.3153 41.3424 73.107 41.3898C73.9152 41.435 74.6204 40.3092 74.699 38.8643C74.7775 37.4194 74.1851 36.2118 73.3934 36.1644C72.5852 36.1192 71.8821 37.2614 71.8014 38.6899Z" fill="#18214A"/>
<path d="M59.8529 37.0935C59.8529 37.0935 58.9801 33.4856 57.5827 33.6669C56.1688 33.8505 54.9366 36.8305 54.9366 36.8305L52.923 35.6234L54.9795 36.0073C54.9795 36.0073 56.2274 32.8917 57.6077 32.9628C59.5762 33.0578 59.8529 37.0935 59.8529 37.0935Z" fill="#18214A"/>
<path d="M71.1295 38.1421C71.1295 38.1421 72.3775 34.6426 73.7756 34.9785C75.1574 35.3165 76.0459 38.4051 76.0459 38.4051L78.1753 37.4279L76.0888 37.5819C76.0888 37.5819 75.1809 34.3455 73.8007 34.2744C71.8299 34.163 71.1295 38.1421 71.1295 38.1421Z" fill="#18214A"/>
<path d="M63.6874 46.0988C63.9246 46.2516 64.1926 46.3836 64.4892 46.4786L64.8858 45.2926C63.8724 44.957 63.6716 44.3158 63.6916 43.8293C63.7187 43.1418 64.1739 42.5322 64.562 42.4317C64.7878 42.3691 65.0108 42.5403 65.2266 42.9127L66.315 42.2876C65.5989 41.0292 64.6413 41.1201 64.2697 41.2184C63.2985 41.4613 62.4924 42.5836 62.4495 43.7904C62.4095 44.7632 62.8684 45.5879 63.6917 46.1316L63.6874 46.0988Z" fill="#EF6E4B"/>
<path d="M57.6289 52.0806C57.7854 53.015 59.035 54.9777 62.7816 55.3529C66.5283 55.7281 68.401 54.265 68.869 53.4865" stroke="#EF6E4B" stroke-linecap="round"/>
</svg>
