<svg width="160" height="397" viewBox="0 0 160 397" fill="none" xmlns="http://www.w3.org/2000/svg">
<g clip-path="url(#clip0_1323_2924)">
<path d="M30.1509 182.674C36.6709 159.923 49.5732 143.048 49.5732 143.048L69.0566 146.303L69.2556 145.948L70.832 146.272H71.0616V146.318L91.1726 150.375C91.1726 150.375 99.8353 166.617 105.59 189.585C111.345 212.552 94.1265 270.564 94.1265 270.564C94.1265 270.564 103.815 297.789 81.3773 368.742H70.8014C70.8014 368.742 74.7501 280.359 73.2196 270.564C71.9034 262.111 70.2045 231.154 71.0769 207.446C69.8525 207.709 68.5822 207.817 67.2506 207.724C67.3271 231.447 64.5875 262.281 62.9958 270.672C61.1439 280.42 62.1234 368.927 62.1234 368.927L51.5475 368.572C31.4825 296.894 42.0737 269.962 42.0737 269.962C42.0737 269.962 23.6616 205.441 30.1816 182.69L30.1509 182.674Z" fill="#FFAA8E"/>
<path d="M120.758 74.9945C120.069 62.9479 82.7704 68.254 82.7704 68.254C82.7704 68.254 58.573 51.1789 51.0888 56.6392C48.441 58.5673 47.2166 70.0432 46.7574 84.0488C43.9413 89.0618 41.5078 96.6199 46.5125 103.499C46.6044 124.076 47.538 143.603 47.538 143.603C68.7356 159.722 91.173 151.748 91.173 151.748C91.173 151.748 100.111 132.637 108.162 113.263C113.335 109.052 114.452 102.929 114.284 97.9156C118.202 87.5502 120.972 78.7427 120.758 75.01V74.9945Z" fill="#FFD6BB"/>
<path d="M116.074 13.651C105.253 -4.96653 77.8876 -2.68368 68.5209 9.45553C57.1951 24.1398 63.21 58.3363 63.21 58.3363C63.21 58.3363 89.29 36.4333 104.901 66.3725C104.901 66.3725 128.165 34.4743 116.059 13.651H116.074Z" fill="#18214A"/>
<path d="M46.757 377.596C47.3998 373.154 45.7775 370.007 46.9253 367.863C48.7007 364.562 50.5833 368.742 50.5833 368.742C50.7363 363.714 59.1082 363.714 59.95 366.027C60.1796 366.644 60.4245 367.2 60.7 367.724C61.2204 366.506 62.108 365.333 63.2406 366.027C67.7097 368.727 62.154 375.699 66.2251 380.773C71.4136 387.236 68.2148 397 68.2148 397H43.3899C40.4819 383.303 46.1142 382.023 46.757 377.596Z" fill="#0E3944"/>
<path d="M62.077 375.946C62.077 375.946 56.2151 372.845 48.4248 376.948L49.9553 374.125C49.9553 374.125 55.1132 370.886 61.3577 373.308L62.077 375.946Z" fill="#205260"/>
<path d="M63.1033 380.65C63.1033 380.65 54.7467 377.719 46.9717 381.838L48.441 378.845C48.441 378.845 55.8334 375.622 62.0932 378.028L63.1186 380.65H63.1033Z" fill="#205260"/>
<path d="M86.4282 377.596C85.7854 373.154 87.4078 370.007 86.2599 367.863C84.4845 364.562 82.602 368.742 82.602 368.742C82.4489 363.714 74.077 363.714 73.2352 366.027C73.0056 366.644 72.7608 367.2 72.4853 367.724C71.9649 366.506 71.0772 365.333 69.9446 366.027C65.4755 368.727 71.0313 375.699 66.9601 380.773C61.7717 387.236 64.9704 397 64.9704 397H89.7801C92.6881 383.303 87.0558 382.023 86.4129 377.596H86.4282Z" fill="#0E3944"/>
<path d="M71.0928 375.946C71.0928 375.946 76.9546 372.845 84.745 376.948L83.2144 374.125C83.2144 374.125 78.0566 370.886 71.8121 373.308L71.0928 375.946Z" fill="#205260"/>
<path d="M70.0827 380.65C70.0827 380.65 78.4393 377.719 86.2143 381.838L84.745 378.845C84.745 378.845 77.3526 375.622 71.0928 378.028L70.0674 380.65H70.0827Z" fill="#205260"/>
<path d="M80.9791 41.3073C80.9791 41.3073 82.0199 54.4491 76.7549 66.1718C76.7549 66.1718 81.1934 74.424 93.0855 69.3956C93.0855 69.3956 91.0805 58.2127 98.9473 44.9167C104.212 36.0166 80.9638 41.2919 80.9638 41.2919L80.9791 41.3073Z" fill="#FFAA8E"/>
<path d="M107.305 35.1531C107.305 35.1531 112.952 31.2506 112.508 36.9732C111.988 43.5904 105.652 45.1174 104.886 42.8346C104.121 40.5517 107.305 35.1531 107.305 35.1531Z" fill="#FFAA8E"/>
<path d="M73.863 29.2146C73.863 29.2146 69.9755 23.5229 68.3532 29.0141C66.4706 35.3845 71.8427 39.1018 73.3733 37.2509C74.9038 35.3999 73.863 29.2146 73.863 29.2146Z" fill="#FFAA8E"/>
<path d="M86.765 55.6368C97.3408 57.6266 104.595 51.7806 108.468 30.8957C110.457 20.1138 106.248 12.494 94.3869 10.2729C82.5407 8.05172 76.3268 13.7126 74.3372 24.4944C70.1895 46.9373 75.8371 53.6008 86.765 55.6522V55.6368Z" fill="#FFAA8E"/>
<path d="M83.0611 22.5358C83.2448 22.6901 83.5203 22.7055 83.7193 22.5667C85.464 21.2864 88.0353 21.8417 88.0659 21.8417C88.3567 21.9034 88.6475 21.7183 88.7087 21.4253C88.7699 21.1322 88.5863 20.8391 88.2955 20.7774C88.173 20.7466 85.2345 20.1296 83.0917 21.6721C82.8469 21.8417 82.8009 22.1811 82.9693 22.4279C82.9999 22.4587 83.0305 22.505 83.0611 22.5204V22.5358Z" fill="#18214A"/>
<path d="M73.1738 32.8702C73.1738 32.8702 68.7812 19.9443 76.7552 9.34756C84.7292 -1.24918 106.279 6.6174 110.228 14.777C114.176 22.9367 106.463 39.4411 106.463 39.4411C106.463 39.4411 112.432 17.5535 100.417 13.9441C100.417 13.9441 98.9324 19.4199 89.6269 23.3069C80.4744 27.1322 74.9951 26.5615 74.9951 26.5615L73.1891 32.8702H73.1738Z" fill="#18214A"/>
<path d="M75.4554 35.4848C75.078 36.499 75.8026 37.7098 77.0706 38.1791C78.3386 38.6483 79.682 38.2093 80.0594 37.1952C80.4368 36.1811 79.7122 34.9702 78.4442 34.501C77.1762 34.0318 75.8328 34.4707 75.4554 35.4848Z" fill="#EF6E4B"/>
<path d="M96.8151 40.0716C96.6793 41.1463 97.6755 42.1604 99.019 42.3117C100.362 42.4782 101.555 41.7366 101.691 40.6468C101.827 39.5721 100.83 38.558 99.487 38.4066C98.1435 38.2401 96.951 38.9818 96.8151 40.0716Z" fill="#EF6E4B"/>
<path d="M97.4944 26.859C97.4944 26.859 97.6604 26.965 97.751 26.9801C97.7812 26.9801 100.332 27.4039 101.495 29.1899C101.661 29.4321 101.978 29.5078 102.234 29.3413C102.476 29.1748 102.551 28.857 102.385 28.5996C100.966 26.4201 98.0378 25.9357 97.9171 25.9206C97.6303 25.8752 97.3585 26.0719 97.3132 26.3595C97.2831 26.5563 97.3585 26.7379 97.4944 26.8439V26.859Z" fill="#18214A"/>
<path d="M82.0665 31.4608C81.825 32.7625 82.2174 33.928 82.9269 34.0642C83.6515 34.2004 84.4213 33.262 84.6628 31.9603C84.9044 30.6586 84.5119 29.4931 83.8024 29.3569C83.0779 29.2207 82.308 30.1591 82.0665 31.4608Z" fill="#18214A"/>
<path d="M96.3018 34.3351C96.0603 35.6368 96.4528 36.8023 97.1623 36.9385C97.8868 37.0747 98.6567 36.1363 98.8982 34.8346C99.1397 33.5329 98.7473 32.3674 98.0378 32.2312C97.3132 32.095 96.5434 33.0486 96.3018 34.3351Z" fill="#18214A"/>
<path d="M92.3463 46.4281C92.3463 46.4281 85.6743 46.1254 82.6553 43.749C82.6553 43.749 83.6515 48.9255 87.2744 49.1526C90.8972 49.3796 92.3312 46.4281 92.3312 46.4281H92.3463Z" fill="#EF6E4B"/>
<path d="M85.7044 31.4734C85.7044 31.4734 85.3421 28.0981 84.0591 28.0981C82.7609 28.0981 81.2967 30.6561 81.2967 30.6561L79.6211 29.3241L81.4325 29.9144C81.4325 29.9144 82.9269 27.2353 84.1647 27.4624C85.9309 27.7802 85.7044 31.4734 85.7044 31.4734Z" fill="#18214A"/>
<path d="M95.7588 33.7579C95.7588 33.7579 97.2985 30.7307 98.5212 31.1999C99.7288 31.6691 100.167 34.5752 100.167 34.5752L102.204 33.9395L100.302 33.8335C100.302 33.8335 99.8647 30.7912 98.6269 30.5642C96.8607 30.2312 95.7588 33.7579 95.7588 33.7579Z" fill="#18214A"/>
<path d="M88.105 40.1007C88.3012 40.2672 88.5276 40.4186 88.7842 40.5397L89.2824 39.5104C88.4069 39.0866 88.3012 38.4812 88.3767 38.0422C88.4823 37.4216 88.9654 36.9222 89.3277 36.8767C89.539 36.8465 89.7201 37.0281 89.8711 37.3914L90.9277 36.9524C90.4296 35.7264 89.5541 35.6961 89.2069 35.7415C88.3012 35.8475 87.4408 36.7708 87.2596 37.8606C87.1087 38.7385 87.4257 39.5407 88.105 40.131V40.1007Z" fill="#EF6E4B"/>
<path d="M111.085 67.9917C111.085 67.9917 124.676 68.2385 157.995 101.957C162.617 106.63 157.352 121.299 143.532 112.26C128.318 102.312 118.232 92.0079 115.064 95.8178C115.064 95.8178 107.136 76.5215 111.085 68.0071V67.9917Z" fill="#FFD6BB"/>
<path d="M159.954 100.014C159.847 88.8154 151.123 60.7271 144.174 49.1123L138.221 51.9196C138.221 51.9196 144.863 83.5247 143.991 94.2603C143.118 104.98 146.485 112.23 153.664 113.834C160.842 115.438 159.985 102.389 159.969 100.029L159.954 100.014Z" fill="#FFAA8E"/>
<path d="M133.339 35.5228C137.624 42.7107 132.573 47.6775 138.221 51.9193C141.726 54.5569 145.169 50.855 145.169 50.855C146.134 46.2276 149.485 39.595 151.337 36.618C153.174 33.641 151.445 34.0267 151.445 34.0267C151.643 33.7644 151.827 33.5331 152.026 33.2863C153.495 31.4662 154.858 30.3556 153.036 30.2322C150.97 30.0934 146.562 35.0601 146.562 35.0601C151.169 26.4223 153.725 26.5611 151.873 26.2372C149.363 25.8053 144.266 32.6539 144.113 32.8544C145.981 27.2244 148.292 24.9415 146.501 25.2037C144.695 25.466 140.119 34.9213 138.466 38.4381C138.098 39.2248 137.869 39.7184 137.869 39.7184C134.762 33.6256 133.323 35.4611 133.323 35.4611L133.339 35.5228Z" fill="#FFAA8E"/>
<path d="M138.481 38.4844C138.113 39.271 137.884 39.7646 137.884 39.7646C137.884 39.7646 140.302 41.2454 140.134 44.9473C140.134 44.9473 142.108 41.3071 138.465 38.4844H138.481Z" fill="#EF6E4B"/>
<path d="M146.991 39.3635C147.435 38.6694 149.96 34.6898 151.46 34.042C151.659 33.7798 151.843 33.5484 152.042 33.3016C150.404 32.5458 147.435 38.438 146.991 39.3481V39.3635Z" fill="#EF6E4B"/>
<path d="M55.6802 55.5752C55.6802 55.5752 42.2576 52.7216 2.80091 78.8356C-2.67833 82.4604 -0.505001 97.9005 14.8614 91.9003C31.7736 85.2985 44.5227 77.2006 46.8491 81.5812C46.8491 81.5812 57.8229 64.722 55.6802 55.5752Z" fill="#FFD6BB"/>
<path d="M1.2552 76.5373C3.6275 65.6012 17.8766 39.9037 27.0444 29.9702L32.3093 33.9498C32.3093 33.9498 19.3765 63.5189 18.0603 74.1927C16.744 84.8666 11.9535 91.2678 4.62233 91.345C-2.72414 91.4221 0.765436 78.8355 1.2552 76.5373Z" fill="#FFAA8E"/>
<path d="M40.4363 18.9105C34.7888 25.065 38.7222 30.9726 32.3246 33.9496C28.3606 35.8005 25.7434 31.4816 25.7434 31.4816C25.7434 26.7462 23.815 19.5583 22.6059 16.2729C21.4121 12.9874 23.0191 13.7124 23.0191 13.7124C22.8813 13.4193 22.7436 13.1417 22.5905 12.8795C21.5192 10.7971 20.4172 9.42434 22.2232 9.68656C24.2741 9.97963 27.58 15.7485 27.58 15.7485C24.8251 6.35483 22.2998 5.95379 24.167 6.01549C26.7229 6.10804 30.3043 13.8666 30.4115 14.098C29.7227 8.20579 27.932 5.49105 29.6309 6.12346C31.3451 6.75587 33.9011 16.967 34.8041 20.7306C35.003 21.579 35.1255 22.1188 35.1255 22.1188C39.3956 16.7973 40.4363 18.8951 40.4363 18.8951V18.9105Z" fill="#FFAA8E"/>
<path d="M34.7891 20.7461C34.9881 21.5945 35.1105 22.1343 35.1105 22.1343C35.1105 22.1343 32.4321 23.0752 31.8505 26.7309C31.8505 26.7309 30.6567 22.7513 34.7891 20.7461Z" fill="#EF6E4B"/>
<path d="M26.2943 19.8516C26.0035 19.0803 24.3353 14.6689 23.0037 13.728C22.866 13.4349 22.7282 13.1573 22.5752 12.8951C24.3353 12.494 26.0495 18.8798 26.2943 19.867V19.8516Z" fill="#EF6E4B"/>
<path d="M47.3695 139.578C47.3695 139.578 1.88256 202.356 16.1623 268.836C16.1623 268.836 31.5592 283.258 43.6197 278.245C55.6801 273.232 68.1845 291.341 78.9593 285.572C89.7341 279.788 99.2539 275.546 106.738 278.631C114.222 281.716 126.818 268.836 126.818 268.836C126.818 268.836 121.247 195.338 93.6063 146.781C93.6063 146.781 71.0924 157.162 47.3695 139.578Z" fill="#A7364B"/>
<path d="M66.2098 380.773C66.2098 380.773 71.184 387.067 69.179 397H64.9854C64.9854 397 64.0212 388.069 66.2251 380.773H66.2098Z" fill="#07262D"/>
</g>
<defs>
<clipPath id="clip0_1323_2924">
<rect width="160" height="397" fill="white"/>
</clipPath>
</defs>
</svg>
