<svg width="94" height="68" viewBox="0 0 94 68" fill="none" xmlns="http://www.w3.org/2000/svg">
<g clip-path="url(#clip0_5_13951)">
<path fill-rule="evenodd" clip-rule="evenodd" d="M46.7156 12.2556C34.9697 12.2556 23.6991 16.8947 15.3565 25.1633C7.01398 33.4319 2.27474 44.6608 2.17017 56.4063C2.16484 57.0055 1.67471 57.487 1.07545 57.4817C0.476183 57.4763 -0.00529153 56.9862 4.39185e-05 56.3869C0.109712 44.0692 5.07983 32.2933 13.8288 23.6219C22.5778 14.9505 34.3974 10.0854 46.7156 10.0854C59.0338 10.0854 70.8535 14.9505 79.6025 23.6219C88.3514 32.2933 93.3216 44.0692 93.4312 56.3869C93.4366 56.9862 92.9551 57.4763 92.3558 57.4817C91.7566 57.487 91.2664 57.0055 91.2611 56.4063C91.1565 44.6608 86.4173 33.4319 78.0748 25.1633C69.7322 16.8947 58.4616 12.2556 46.7156 12.2556Z" fill="white"/>
<path fill-rule="evenodd" clip-rule="evenodd" d="M48.0869 21.4574C39.2485 21.1555 30.6122 24.1419 23.8482 29.839C17.0842 35.5361 12.6731 43.5391 11.4681 52.3001C11.4272 52.597 11.1535 52.8045 10.8566 52.7637C10.5598 52.7229 10.3522 52.4491 10.3931 52.1523C11.6347 43.1252 16.1797 34.8792 23.1491 29.0091C30.1185 23.139 39.0171 20.0619 48.1239 20.3729C57.2308 20.6839 65.8987 24.3609 72.4514 30.6928C79.0041 37.0247 82.976 45.5615 83.5989 54.6523C83.6193 54.9513 83.3936 55.2102 83.0947 55.2307C82.7957 55.2512 82.5368 55.0254 82.5163 54.7265C81.9118 45.9036 78.057 37.6184 71.6974 31.4731C65.3378 25.3278 56.9253 21.7592 48.0869 21.4574Z" fill="#00E3FE"/>
<path d="M51.3472 0H42.084C40.3221 0 38.8938 1.42831 38.8938 3.19021V3.71468C38.8938 5.47659 40.3221 6.90489 42.084 6.90489H51.3472C53.1091 6.90489 54.5374 5.47659 54.5374 3.71468V3.19021C54.5374 1.42831 53.1091 0 51.3472 0Z" fill="#00B2F5"/>
</g>
<defs>
<clipPath id="clip0_5_13951">
<rect width="93.6809" height="68" fill="white"/>
</clipPath>
</defs>
</svg>
